<?xml version="1.0" standalone="no"?>
<!DOCTYPE svg PUBLIC "-//W3C//DTD SVG 20010904//EN"
 "http://www.w3.org/TR/2001/REC-SVG-20010904/DTD/svg10.dtd">
<svg version="1.0" xmlns="http://www.w3.org/2000/svg"
 width="1360.000000pt" height="1380.000000pt" viewBox="0 0 1360.000000 1380.000000"
 preserveAspectRatio="xMidYMid meet">

<g transform="translate(0.000000,1380.000000) scale(0.100000,-0.100000)"
fill="#000000" stroke="none">
<path d="M6806 13023 c-3 -93 -10 -240 -16 -328 -6 -88 -11 -250 -11 -360 -1
-110 -4 -264 -8 -343 -3 -79 -3 -151 1 -161 6 -16 29 -18 247 -24 133 -3 248
-4 255 -1 14 5 27 136 18 193 l-4 29 -110 4 c-95 3 -112 6 -125 23 -13 17 -14
61 -9 315 4 162 11 340 16 395 5 55 9 170 10 256 0 184 14 169 -151 169 l-107
0 -6 -167z"/>
<path d="M5770 13114 c-19 -7 -51 -13 -70 -13 -19 -1 -51 -5 -70 -10 -19 -5
-80 -17 -135 -26 -154 -26 -148 -22 -140 -108 3 -39 13 -89 22 -110 l17 -39
62 7 c57 6 63 5 78 -17 9 -12 16 -32 16 -43 0 -28 28 -188 46 -257 8 -32 14
-70 14 -85 0 -16 7 -50 15 -77 8 -27 15 -63 15 -80 0 -17 6 -60 14 -96 18 -83
32 -155 57 -305 12 -66 27 -126 33 -133 11 -11 30 -11 102 -2 135 18 144 23
144 79 0 25 -5 62 -10 81 -6 19 -15 64 -21 100 -9 63 -20 124 -54 295 -8 44
-19 107 -24 140 -5 33 -14 80 -20 105 -9 42 -23 115 -50 264 -7 38 -7 65 -1
77 10 17 66 39 102 39 32 0 32 48 -3 183 l-11 47 -47 -1 c-25 -1 -62 -7 -81
-15z"/>
<path d="M7778 13098 c-9 -14 -21 -40 -26 -59 -6 -19 -15 -47 -21 -64 -12 -34
-28 -82 -131 -405 -39 -124 -78 -240 -86 -258 -8 -18 -14 -41 -14 -50 0 -10
-4 -22 -9 -27 -5 -6 -19 -44 -31 -85 -12 -41 -33 -109 -47 -150 -49 -151 -53
-165 -53 -182 0 -10 8 -21 18 -27 25 -13 196 -36 215 -28 10 4 27 41 43 94 15
48 31 94 37 101 13 17 76 14 117 -6 l35 -17 -3 -106 c-3 -79 0 -108 10 -116
17 -14 225 -39 235 -29 5 4 11 256 14 559 4 304 10 608 14 677 6 102 5 127 -6
136 -16 13 -130 40 -201 48 -27 3 -59 8 -71 11 -18 5 -28 0 -39 -17z m56 -694
c10 -25 7 -160 -4 -188 -10 -28 -36 -34 -64 -13 -16 11 -16 16 -2 67 24 87 48
150 56 150 4 0 11 -7 14 -16z"/>
<path d="M8576 12895 c-9 -36 -23 -95 -32 -132 -8 -38 -20 -84 -25 -103 -5
-19 -14 -55 -19 -80 -5 -25 -16 -72 -24 -105 -29 -119 -48 -201 -55 -240 -5
-22 -13 -58 -19 -80 -6 -22 -25 -103 -43 -180 -17 -77 -42 -184 -55 -238 -26
-106 -23 -130 18 -142 13 -4 37 -13 53 -19 67 -28 101 -39 124 -40 26 -1 24
-5 203 334 51 97 82 139 94 127 7 -7 -15 -144 -41 -247 -9 -36 -21 -89 -26
-119 -5 -29 -14 -62 -19 -72 -6 -10 -10 -37 -10 -62 l0 -43 111 -38 c79 -27
114 -34 123 -27 7 6 54 95 105 198 51 104 96 195 101 203 69 123 401 802 398
816 -4 22 -144 83 -191 84 -25 0 -31 -7 -54 -57 -14 -32 -29 -67 -34 -78 -5
-11 -13 -27 -18 -35 -5 -8 -24 -46 -41 -85 -88 -194 -111 -229 -123 -184 -5
20 6 74 68 329 27 109 38 170 33 176 -3 3 -45 19 -93 36 -72 25 -91 28 -109
19 -18 -11 -56 -74 -56 -94 0 -4 -11 -24 -24 -45 -12 -20 -53 -96 -89 -168
-36 -71 -75 -138 -87 -149 -20 -18 -20 -18 -20 6 0 32 39 200 84 364 39 144
40 146 25 159 -8 7 -43 23 -79 36 -36 13 -69 27 -74 32 -6 4 -22 8 -37 8 -24
0 -27 -5 -43 -65z"/>
<path d="M4785 12894 c-145 -52 -215 -134 -217 -253 -2 -131 58 -282 141 -360
44 -41 85 -68 188 -121 43 -22 85 -49 95 -60 9 -11 22 -20 30 -20 26 0 84 -59
115 -117 51 -98 53 -193 3 -193 -36 0 -68 58 -116 215 -25 83 -32 90 -75 71
-19 -8 -61 -22 -95 -32 -104 -29 -104 -28 -66 -144 37 -112 87 -213 129 -260
15 -18 51 -45 78 -61 42 -24 61 -29 120 -29 42 1 80 6 95 15 14 8 34 14 45 15
30 0 115 69 150 120 28 42 30 51 30 140 -1 78 -6 109 -29 175 -63 178 -154
276 -353 377 -24 12 -38 41 -29 57 4 5 44 21 90 35 46 15 89 33 96 41 11 13 9
36 -9 80 -5 11 -19 47 -31 80 -44 113 -112 203 -177 231 -41 18 -156 17 -208
-2z m106 -237 c29 -22 86 -174 76 -201 -23 -59 -147 76 -147 159 0 13 10 31
22 39 27 19 28 19 49 3z"/>
<path d="M9839 12318 c-34 -57 -68 -114 -76 -128 -8 -14 -22 -37 -31 -52 -9
-16 -93 -155 -186 -310 -93 -156 -178 -299 -191 -318 -59 -93 -145 -248 -145
-261 1 -16 182 -129 208 -129 12 0 53 60 131 193 143 243 182 301 204 305 21
4 57 -24 57 -45 0 -16 -48 -121 -66 -143 -6 -8 -20 -31 -31 -50 -10 -19 -30
-53 -44 -75 -45 -69 -108 -185 -121 -221 -12 -33 -11 -36 17 -59 17 -13 33
-24 36 -25 4 0 37 -18 73 -40 36 -22 72 -40 79 -40 8 0 22 20 31 43 9 24 40
84 69 133 29 50 56 96 60 104 4 8 21 38 37 65 63 105 98 192 106 260 6 48 11
57 43 79 123 83 256 309 256 435 0 112 -33 147 -267 286 -76 45 -169 95 -177
95 -5 0 -38 -46 -72 -102z m238 -254 c17 -26 16 -28 -25 -108 -56 -109 -102
-161 -136 -152 -50 12 -43 56 25 161 10 17 22 37 25 45 16 36 57 80 74 80 11
0 27 -12 37 -26z"/>
<path d="M3570 12339 c-8 -5 -26 -14 -40 -19 -14 -6 -47 -24 -75 -40 -27 -16
-59 -34 -70 -40 -11 -6 -38 -21 -60 -35 -22 -14 -61 -37 -87 -51 -36 -20 -48
-33 -48 -50 0 -13 33 -78 73 -146 41 -68 134 -224 207 -348 74 -124 185 -310
248 -415 64 -104 122 -202 131 -218 24 -41 46 -43 103 -8 27 17 51 31 54 31
19 0 84 54 84 69 0 18 -71 144 -155 276 -17 28 -35 57 -38 65 -4 8 -16 29 -27
45 -62 97 -72 137 -38 159 44 27 88 -18 193 -198 99 -171 169 -271 192 -274
21 -3 64 17 128 58 17 11 42 26 58 35 15 9 27 18 27 22 0 4 -24 43 -53 87 -29
45 -89 139 -133 209 -88 143 -145 215 -210 266 -41 31 -44 37 -44 80 0 86
-112 295 -200 375 -72 65 -173 95 -220 65z m59 -277 c31 -34 111 -185 111
-211 0 -24 -34 -54 -57 -49 -21 4 -152 213 -153 244 -1 50 58 59 99 16z"/>
<path d="M6298 12033 c-16 -4 -18 -18 -18 -113 0 -126 3 -130 87 -129 55 0
140 13 149 22 4 3 3 56 -1 116 l-7 111 -97 -1 c-53 -1 -104 -3 -113 -6z"/>
<path d="M2788 11835 c-32 -25 -66 -53 -77 -62 -27 -26 -111 -96 -135 -113
-12 -8 -36 -28 -55 -46 -44 -41 -39 -59 36 -145 54 -63 302 -368 404 -499 25
-32 59 -74 75 -93 34 -40 47 -57 93 -117 19 -25 39 -49 45 -55 6 -5 27 -30 45
-55 48 -63 113 -130 127 -130 9 0 63 38 124 87 8 6 65 51 125 99 61 48 113 93
117 98 16 23 6 46 -48 115 -66 84 -80 87 -144 31 -25 -22 -62 -53 -84 -67
l-38 -27 -42 45 c-61 68 -146 178 -158 205 -10 21 -7 29 17 54 16 16 45 41 65
55 66 46 66 62 3 141 -31 38 -62 73 -69 77 -22 12 -44 1 -97 -48 -26 -25 -59
-48 -74 -51 -24 -6 -33 0 -80 52 -30 32 -70 83 -90 112 -44 64 -44 64 54 146
51 43 69 64 66 77 -7 26 -116 153 -133 156 -8 1 -41 -18 -72 -42z"/>
<path d="M10746 11833 c-19 -21 -58 -67 -86 -103 -28 -36 -56 -66 -61 -68 -5
-2 -9 -10 -9 -17 0 -7 -4 -15 -9 -17 -5 -1 -52 -57 -105 -123 -53 -66 -110
-136 -125 -155 -16 -19 -51 -62 -77 -95 -48 -60 -67 -83 -159 -190 -27 -32
-64 -77 -81 -101 -17 -24 -50 -64 -73 -90 -22 -25 -41 -54 -41 -65 0 -11 59
-66 163 -151 89 -73 171 -140 181 -150 11 -10 27 -18 36 -18 16 0 132 139 138
167 4 17 -8 30 -95 96 -42 32 -63 55 -63 69 0 24 39 78 115 162 6 6 25 30 43
54 19 23 41 42 51 42 9 0 50 -27 91 -59 58 -47 78 -57 92 -50 18 10 128 146
128 159 0 5 -24 28 -52 52 -120 98 -119 91 -15 220 46 56 91 104 101 106 9 2
51 -24 92 -57 42 -34 84 -61 93 -61 15 0 99 93 131 146 14 24 13 26 -25 60
-72 62 -187 154 -194 154 -3 0 -24 17 -46 38 -22 21 -54 48 -72 60 l-32 22
-35 -37z"/>
<path d="M11438 11283 c-1 -5 -39 -39 -83 -78 -44 -38 -112 -99 -150 -135 -39
-36 -108 -99 -154 -140 -99 -89 -105 -95 -252 -229 -63 -58 -152 -139 -198
-180 -137 -125 -151 -140 -151 -161 0 -12 31 -53 74 -97 83 -87 75 -87 162 -6
23 21 81 74 130 118 48 44 103 95 122 113 40 36 62 41 62 12 0 -19 -9 -36 -88
-180 -88 -159 -152 -286 -152 -302 0 -19 114 -129 131 -126 15 3 135 108 384
338 39 36 113 103 165 150 122 110 186 168 226 205 18 17 75 70 128 118 57 53
96 97 96 108 0 24 -127 159 -149 159 -9 -1 -43 -26 -76 -56 -33 -30 -107 -96
-165 -146 -58 -50 -108 -96 -112 -102 -5 -8 -10 -8 -18 0 -14 14 79 211 191
403 26 44 27 85 3 113 -96 108 -115 124 -126 101z"/>
<path d="M2126 11213 c-10 -3 -24 -9 -30 -14 -41 -32 -114 -99 -140 -128 -17
-19 -59 -64 -93 -100 -35 -37 -63 -75 -63 -87 0 -19 116 -136 254 -255 22 -19
60 -54 86 -79 25 -25 78 -74 116 -110 191 -180 367 -344 442 -414 l83 -76 27
16 c35 22 152 149 152 166 0 14 -87 98 -231 224 -53 47 -102 95 -108 108 -15
27 -8 46 44 111 34 44 65 116 65 155 0 66 -67 186 -152 270 -160 161 -242 210
-358 215 -41 2 -84 1 -94 -2z m133 -285 c35 -25 146 -132 173 -167 33 -43 35
-62 8 -86 -23 -20 -13 -26 -110 60 -49 44 -157 151 -179 178 -12 15 -11 20 4
37 16 18 20 18 51 5 19 -8 43 -20 53 -27z"/>
<path d="M6810 11050 c-19 -5 -45 -11 -58 -14 -12 -2 -95 -8 -185 -11 -250
-10 -558 -53 -747 -105 -19 -5 -71 -18 -115 -30 -90 -22 -162 -43 -185 -53 -8
-4 -42 -16 -75 -26 -80 -27 -141 -49 -163 -60 -36 -18 -93 -41 -103 -41 -17 0
-272 -123 -374 -180 -75 -42 -116 -65 -154 -85 -19 -10 -70 -42 -114 -71 -43
-29 -95 -58 -115 -65 -20 -6 -45 -19 -56 -28 -10 -9 -21 -15 -25 -14 -3 1 -19
-9 -36 -22 -16 -13 -47 -37 -68 -54 -39 -30 -179 -165 -422 -406 -130 -129
-338 -371 -413 -481 -7 -11 -36 -53 -65 -94 -227 -323 -408 -702 -554 -1155
-9 -27 -22 -57 -29 -65 -7 -8 -17 -33 -22 -55 -6 -22 -19 -75 -31 -117 -11
-43 -22 -115 -25 -160 -3 -46 -11 -119 -16 -163 -44 -326 -61 -686 -41 -872 6
-59 13 -139 16 -178 7 -85 22 -195 41 -296 8 -42 14 -88 14 -103 0 -15 5 -36
11 -47 6 -11 14 -41 19 -67 15 -76 35 -156 41 -167 4 -5 10 -27 13 -49 4 -21
11 -46 16 -55 4 -9 22 -61 40 -116 46 -144 110 -308 156 -397 8 -14 14 -33 14
-42 0 -9 4 -16 9 -16 5 0 12 -12 16 -27 3 -15 10 -30 13 -33 4 -3 24 -39 45
-80 21 -41 51 -97 67 -125 16 -27 33 -57 37 -65 15 -32 68 -115 75 -118 4 -2
8 -10 8 -17 0 -8 6 -20 14 -28 22 -22 96 -139 96 -151 0 -31 181 -270 212
-281 9 -3 104 -92 210 -198 191 -189 256 -248 368 -337 162 -128 229 -180 233
-180 3 0 40 -24 83 -53 104 -70 263 -165 344 -207 190 -96 282 -140 294 -140
3 0 30 -11 60 -25 30 -14 61 -25 68 -25 8 0 18 -4 23 -9 12 -10 223 -79 340
-111 150 -41 173 -48 192 -58 10 -5 38 -12 63 -16 25 -3 88 -13 140 -21 124
-20 538 -74 665 -88 55 -6 174 -11 265 -11 143 -1 170 1 193 17 15 9 48 20 74
23 27 4 58 13 71 21 13 8 58 21 100 28 84 16 248 48 357 71 39 8 88 17 110 19
22 2 56 11 77 19 20 9 58 21 85 27 66 15 63 14 113 28 25 6 68 20 95 31 28 10
77 26 110 35 33 9 75 25 93 36 18 10 41 19 50 20 9 0 40 12 68 27 29 15 69 35
90 45 176 84 278 137 327 169 32 21 60 38 62 38 12 0 315 209 335 230 3 3 34
28 70 55 36 28 70 55 75 61 6 6 35 30 65 54 50 41 105 88 151 132 10 10 35 28
56 41 56 35 213 210 248 276 17 31 52 83 78 116 86 110 181 248 257 373 25 40
53 85 62 100 31 49 176 332 203 397 10 22 23 54 31 70 39 84 105 277 139 405
9 30 26 91 39 135 14 44 32 103 40 132 9 28 16 62 16 74 0 12 7 45 14 73 8 28
22 94 30 146 41 256 48 300 61 360 16 74 20 297 6 332 -6 13 -15 97 -20 188
-12 174 -22 269 -52 465 -25 159 -63 343 -79 380 -5 11 -11 31 -13 45 -6 32
-32 124 -48 170 -53 150 -93 260 -104 285 -23 54 -43 99 -61 140 -31 75 -121
250 -178 347 -31 54 -56 100 -56 102 0 8 -192 289 -219 322 -14 17 -33 41 -41
53 -8 13 -23 32 -32 43 -10 12 -18 26 -18 33 0 32 -194 255 -256 294 -23 14
-97 79 -165 143 -68 64 -155 141 -194 170 -38 29 -74 58 -80 64 -24 26 -297
220 -335 237 -8 4 -28 16 -45 27 -53 35 -213 126 -275 157 -19 10 -36 21 -38
26 -2 4 -10 7 -18 7 -7 0 -55 20 -106 44 -137 65 -207 96 -218 96 -8 0 -60 20
-100 40 -8 4 -42 15 -75 24 -33 10 -73 24 -90 31 -16 8 -46 17 -65 21 -19 3
-39 10 -45 14 -5 5 -37 14 -70 20 -33 7 -76 16 -95 21 -19 4 -64 15 -100 22
-36 8 -72 17 -80 21 -18 7 -128 24 -230 36 -87 9 -248 37 -270 47 -39 16 -255
25 -310 13z m-80 -519 c19 -6 152 -12 295 -16 242 -5 300 -10 430 -35 28 -5
81 -14 118 -20 38 -5 90 -16 115 -24 26 -8 90 -26 142 -41 52 -14 110 -33 128
-41 18 -8 39 -14 47 -14 8 0 29 -7 47 -15 18 -8 69 -28 113 -45 44 -17 93 -36
110 -43 60 -24 372 -185 430 -222 198 -125 334 -221 442 -311 97 -82 233 -216
288 -285 29 -36 69 -82 88 -102 19 -21 50 -56 68 -80 19 -23 68 -76 109 -117
68 -69 213 -271 270 -375 11 -22 37 -67 56 -100 30 -53 112 -217 157 -315 36
-79 103 -264 142 -395 10 -33 22 -71 27 -85 6 -14 14 -45 19 -70 5 -25 15 -79
24 -120 31 -149 45 -238 65 -405 22 -172 22 -177 4 -540 -2 -60 -7 -159 -9
-220 -4 -104 -28 -266 -59 -400 -38 -163 -45 -194 -60 -245 -9 -30 -21 -68
-26 -85 -11 -39 -30 -92 -47 -132 -7 -17 -13 -36 -13 -41 0 -31 -198 -457
-278 -597 -29 -51 -83 -136 -92 -145 -3 -3 -33 -47 -68 -98 -75 -111 -126
-174 -148 -183 -5 -2 -45 -44 -89 -94 -43 -49 -95 -106 -115 -125 -19 -19 -50
-55 -69 -78 -50 -65 -115 -124 -316 -288 -79 -63 -221 -164 -233 -164 -5 0
-12 -4 -14 -8 -9 -25 -428 -254 -558 -306 -25 -10 -54 -22 -65 -27 -52 -23
-221 -85 -270 -99 -249 -75 -449 -121 -615 -142 -94 -12 -97 -12 -541 -22
-204 -4 -342 -3 -394 4 -44 6 -111 15 -150 20 -94 12 -261 46 -365 73 -196 53
-314 88 -355 106 -11 5 -72 28 -135 51 -63 24 -126 49 -140 56 -14 7 -67 33
-118 59 -51 25 -110 56 -130 69 -20 13 -47 26 -59 30 -13 4 -23 11 -23 15 0 4
-12 13 -27 20 -21 10 -203 127 -238 153 -5 5 -44 34 -85 65 -132 100 -260 213
-388 343 -87 87 -182 200 -182 215 0 9 -159 216 -205 265 -58 62 -94 112 -150
205 -62 102 -191 356 -234 460 -18 44 -39 92 -47 107 -8 14 -14 35 -14 45 0
10 -4 23 -8 29 -5 5 -23 56 -41 114 -18 58 -37 121 -43 140 -12 36 -19 63 -44
165 -30 122 -45 202 -54 282 -5 45 -15 102 -21 125 -9 30 -13 153 -13 418 0
315 3 388 17 459 9 46 17 102 17 125 0 23 7 51 15 63 8 11 17 39 21 62 4 23
11 44 15 47 5 3 9 16 9 28 0 13 6 46 14 72 37 129 45 162 47 204 2 25 6 52 10
60 4 8 14 40 24 70 9 30 23 69 31 87 8 17 14 36 14 42 0 6 4 19 9 29 5 9 24
49 41 87 79 176 207 423 236 456 8 8 14 18 14 22 0 3 40 66 89 139 111 165
270 363 393 488 125 129 289 280 302 280 6 0 25 11 41 25 17 13 35 28 40 33 6
4 46 35 90 67 44 33 82 63 85 66 3 3 16 12 29 19 27 14 29 15 81 60 35 29 225
144 310 188 25 12 52 27 60 32 14 9 131 63 175 81 11 4 40 16 65 27 25 10 61
25 80 31 19 7 44 17 55 22 58 25 120 45 285 89 123 33 152 39 299 65 52 9 98
18 102 20 10 7 176 27 284 35 154 10 177 11 215 1z"/>
<path d="M7705 9074 c-45 -36 -181 -100 -265 -124 -104 -31 -132 -61 -134
-143 0 -34 2 -78 7 -98 7 -36 3 -42 -130 -220 -75 -101 -140 -186 -143 -189
-4 -3 -43 -54 -89 -115 -45 -60 -89 -118 -97 -128 -16 -19 -95 -122 -269 -351
-55 -73 -126 -166 -158 -208 -65 -85 -83 -97 -106 -71 -22 25 -137 201 -216
331 -6 10 -29 45 -53 80 -23 35 -42 65 -42 68 0 2 -17 30 -39 62 -44 65 -57
105 -38 120 6 6 53 31 103 56 110 54 144 90 144 149 0 72 -66 147 -128 147
-13 0 -74 -24 -135 -54 -159 -77 -158 -77 -196 -20 -36 55 -36 59 -15 125 22
67 15 215 -13 279 -90 204 -320 300 -532 223 -62 -23 -87 -39 -138 -90 -67
-67 -92 -108 -117 -195 -38 -131 -4 -263 97 -374 51 -57 103 -91 182 -119 28
-10 58 -25 67 -33 25 -21 40 -79 26 -101 -11 -18 -203 -121 -224 -121 -7 0
-26 -16 -43 -35 -38 -44 -42 -99 -10 -155 22 -38 72 -70 111 -70 11 0 77 27
145 60 68 33 130 60 137 60 22 0 46 -11 46 -21 0 -5 13 -37 30 -71 17 -34 30
-67 30 -75 0 -7 5 -13 10 -13 6 0 10 -5 10 -12 0 -7 20 -53 44 -103 60 -123
122 -259 166 -360 12 -27 39 -86 61 -130 21 -45 39 -86 39 -92 0 -6 7 -16 15
-23 8 -7 15 -20 15 -30 0 -10 7 -23 15 -30 25 -21 18 -75 -13 -112 -16 -18
-93 -118 -172 -223 -79 -104 -147 -192 -150 -195 -3 -3 -41 -52 -85 -110 -43
-58 -138 -181 -209 -275 -71 -93 -164 -215 -205 -270 -42 -55 -78 -102 -82
-105 -8 -8 -189 -250 -231 -309 -47 -67 -50 -110 -12 -146 31 -29 74 -32 110
-8 14 9 63 66 108 127 147 195 456 601 595 781 47 61 112 146 145 190 116 155
288 375 298 381 13 8 46 -28 54 -60 3 -14 10 -26 15 -26 5 0 9 -9 9 -19 0 -11
6 -26 13 -33 8 -7 17 -26 21 -41 3 -15 11 -27 16 -27 6 0 10 -7 10 -16 0 -14
15 -48 41 -94 5 -8 12 -22 15 -30 27 -69 90 -206 97 -208 4 -2 7 -10 7 -18 0
-8 9 -31 20 -51 11 -21 20 -43 20 -50 0 -7 5 -13 10 -13 6 0 10 -7 10 -15 0
-8 13 -41 29 -72 26 -52 70 -145 121 -258 10 -22 32 -70 49 -106 17 -36 31
-71 31 -77 0 -7 5 -12 10 -12 6 0 10 -5 10 -12 0 -11 17 -50 101 -225 50 -104
51 -139 4 -187 -31 -32 -40 -36 -84 -36 -60 0 -81 18 -81 67 0 50 -25 96 -63
114 -17 8 -57 27 -87 41 -30 14 -84 39 -120 55 -36 17 -87 38 -115 48 -27 10
-59 25 -70 32 -11 7 -27 13 -37 13 -10 0 -18 5 -18 10 0 6 -5 10 -10 10 -6 0
-37 13 -69 28 -56 27 -61 27 -81 12 -18 -14 -22 -26 -21 -72 0 -31 7 -75 15
-99 9 -24 16 -61 16 -82 0 -21 7 -54 15 -74 8 -19 15 -50 15 -69 0 -18 5 -45
11 -61 6 -15 13 -50 16 -78 3 -27 9 -58 14 -67 5 -9 9 -29 9 -44 0 -41 43 -90
85 -98 27 -5 47 -1 80 15 25 13 45 27 45 31 0 10 122 9 130 -1 3 -3 36 -21 73
-40 38 -19 74 -39 80 -45 7 -6 29 -20 50 -31 20 -11 37 -22 37 -25 0 -6 30
-20 114 -54 21 -9 53 -16 70 -16 18 0 38 -6 45 -12 15 -16 227 -16 256 -1 13
7 113 10 282 9 167 0 262 3 260 9 -6 18 -66 22 -284 20 -148 -1 -228 -6 -248
-14 -36 -15 -199 -15 -265 0 -118 28 -242 87 -317 153 -13 11 -58 37 -100 56
l-76 36 52 32 52 33 67 -20 c74 -22 176 -47 237 -57 65 -11 335 -8 402 5 210
40 413 145 560 290 69 69 175 193 182 214 2 7 7 14 11 17 4 3 20 27 36 55 16
27 34 59 41 70 7 11 15 27 19 35 14 34 39 85 44 90 3 3 20 43 38 90 45 115 53
129 71 135 20 6 37 2 34 -7 -2 -5 2 -8 7 -8 6 0 7 -6 1 -17 -22 -43 -33 -103
-27 -154 11 -99 13 -134 8 -143 -2 -4 -6 -25 -7 -45 -2 -20 -6 -51 -9 -68 -7
-37 11 -47 18 -10 15 73 20 134 18 227 -2 97 13 228 27 240 4 3 14 17 23 31 9
15 36 36 60 49 67 35 78 48 78 97 0 49 4 44 -295 335 -55 53 -120 117 -144
142 -77 79 -127 57 -142 -61 -23 -183 -37 -281 -41 -289 -3 -5 -9 -41 -12 -80
-4 -39 -11 -87 -16 -105 -18 -62 -12 -115 16 -148 14 -17 37 -36 52 -43 15 -8
29 -25 33 -42 7 -25 3 -34 -30 -68 -21 -21 -48 -38 -59 -38 -11 0 -22 -7 -26
-15 -7 -20 -28 -19 -48 3 -10 9 -27 26 -39 37 -11 11 -33 40 -47 65 -14 25
-29 47 -32 50 -9 9 -30 45 -36 63 -4 9 -9 17 -13 17 -4 0 -15 17 -26 38 -27
51 -77 126 -87 130 -4 2 -8 9 -8 15 0 13 -71 120 -82 125 -5 2 -8 12 -8 22 0
9 -7 23 -15 30 -8 7 -15 19 -15 26 0 8 -4 14 -8 14 -5 0 -19 19 -33 41 -13 23
-32 53 -42 68 -9 14 -20 34 -23 44 -4 9 -10 17 -15 17 -5 0 -9 6 -9 14 0 8 -6
21 -13 28 -7 7 -22 29 -33 48 -10 19 -31 51 -46 71 -16 20 -28 40 -28 43 0 3
-17 32 -37 63 -21 32 -46 73 -56 92 -10 19 -24 40 -30 47 -28 31 -35 42 -41
62 -4 12 -11 22 -16 22 -4 0 -11 8 -14 18 -7 19 -16 34 -61 102 -17 25 -33 47
-37 48 -5 2 -8 9 -8 14 0 13 -61 112 -72 116 -5 2 -8 7 -8 12 0 8 -61 105 -80
127 -29 34 -3 76 252 405 106 138 116 143 273 142 134 -1 185 -14 267 -71 103
-72 164 -171 224 -363 18 -60 39 -118 60 -167 8 -17 14 -38 14 -46 0 -8 7 -20
15 -27 8 -7 15 -20 15 -28 0 -31 171 -357 199 -382 3 -3 17 -21 31 -40 46 -66
185 -210 202 -210 4 0 13 -6 20 -13 43 -41 192 -104 254 -107 121 -6 104 -16
287 165 92 91 167 170 167 175 0 6 -10 10 -22 11 -13 0 -32 2 -43 4 -11 2 -36
7 -55 10 -44 8 -117 34 -150 54 -88 54 -170 133 -244 236 -16 22 -33 42 -38
43 -4 2 -8 10 -8 18 0 8 -5 14 -11 14 -5 0 -8 4 -5 9 4 5 2 11 -2 13 -8 3
-105 189 -140 268 -8 19 -21 47 -29 62 -7 14 -13 35 -13 45 0 10 -4 23 -9 29
-9 10 -65 186 -80 254 -35 156 -96 286 -171 360 -54 54 -147 111 -205 127 -32
8 -199 10 -280 3 -38 -3 -50 -1 -53 10 -2 12 118 180 236 330 47 59 58 67 109
73 27 3 72 16 98 29 l49 23 3 110 c4 113 28 271 45 292 5 6 8 23 6 37 l-3 24
-30 -24z m-2299 -195 c77 -29 145 -96 172 -171 29 -77 31 -104 14 -163 -26
-87 -64 -135 -152 -191 -41 -27 -53 -29 -135 -29 -80 1 -95 4 -137 29 -55 32
-116 99 -125 136 -3 14 -10 31 -16 38 -14 17 -13 150 2 165 6 6 11 17 11 25 0
17 61 97 95 124 73 57 178 72 271 37z m279 -520 c-4 -5 -1 -9 5 -9 6 0 15 -10
20 -22 6 -13 24 -43 40 -68 16 -25 33 -52 36 -60 4 -8 19 -31 34 -50 15 -19
30 -45 34 -57 4 -13 11 -23 15 -23 3 0 15 -15 26 -32 10 -18 48 -78 84 -133
36 -55 74 -116 84 -135 11 -19 30 -49 43 -67 13 -17 24 -34 24 -37 0 -5 78
-126 121 -188 11 -15 19 -30 19 -32 0 -10 64 -111 72 -114 4 -2 8 -7 8 -11 0
-8 80 -134 98 -156 4 -5 11 -17 15 -25 16 -31 88 -142 98 -150 3 -3 9 -15 13
-27 4 -13 11 -23 16 -23 4 0 11 -8 14 -17 7 -20 16 -35 61 -103 17 -25 33 -46
38 -48 4 -2 7 -9 7 -15 0 -7 16 -37 37 -67 20 -30 46 -71 58 -90 13 -19 63
-98 112 -175 49 -77 108 -169 130 -205 23 -36 65 -103 94 -150 29 -47 56 -87
59 -90 4 -3 10 -12 13 -20 4 -8 16 -28 27 -45 11 -16 23 -37 27 -45 8 -15 36
-58 140 -217 29 -44 53 -86 53 -92 0 -7 6 -14 14 -17 8 -3 17 -16 20 -28 7
-30 54 -76 77 -76 11 0 19 -4 19 -10 0 -22 86 -3 138 30 12 8 22 20 22 27 0 7
4 13 10 13 5 0 12 16 16 35 3 20 15 40 25 45 14 8 147 40 165 40 23 0 -86
-249 -143 -326 -13 -17 -23 -34 -23 -37 0 -21 -106 -156 -179 -227 -95 -94
-116 -112 -179 -153 -51 -33 -60 -29 -94 42 -13 25 -25 48 -28 51 -3 3 -20 34
-39 70 -19 36 -48 90 -64 120 -17 30 -44 80 -59 110 -16 30 -42 78 -58 105
-16 28 -46 84 -67 125 -21 41 -40 77 -43 80 -4 3 -21 34 -39 70 -18 36 -40 72
-47 81 -8 8 -14 21 -14 27 0 6 -13 34 -30 60 -16 27 -30 54 -30 61 0 6 -3 11
-7 11 -5 0 -19 25 -32 55 -14 30 -28 55 -33 55 -4 0 -8 8 -8 17 0 9 -6 24 -13
32 -8 9 -39 63 -69 121 -31 58 -72 134 -92 170 -19 36 -46 85 -58 110 -13 25
-28 50 -33 56 -6 6 -19 31 -30 55 -11 24 -22 46 -25 49 -3 3 -14 23 -25 45
-11 22 -36 67 -55 100 -19 33 -46 80 -58 105 -13 25 -34 65 -48 90 -14 25 -39
70 -55 100 -17 30 -35 64 -41 75 -13 23 -15 27 -64 120 -20 39 -40 75 -44 80
-6 9 -35 61 -116 215 -11 19 -21 37 -24 40 -3 3 -18 30 -34 60 -63 121 -102
194 -182 337 -52 92 -74 137 -74 148 0 7 -7 15 -15 19 -8 3 -15 14 -15 24 0
11 -7 25 -15 32 -25 21 -17 39 45 99 33 32 60 64 60 70 0 7 5 9 10 6 6 -4 8
-11 5 -16z m-175 -198 c0 -5 6 -16 13 -23 6 -7 26 -40 43 -73 55 -105 69 -130
74 -135 3 -3 17 -27 31 -55 35 -68 97 -181 119 -219 11 -17 32 -56 48 -86 16
-30 44 -82 62 -115 40 -72 65 -117 115 -210 21 -38 47 -86 58 -105 27 -48 65
-118 122 -225 26 -49 51 -94 55 -100 4 -5 22 -37 40 -70 18 -33 45 -82 60
-110 15 -27 42 -77 59 -110 18 -33 36 -67 41 -75 19 -31 104 -187 129 -235 14
-27 28 -52 32 -55 3 -3 16 -27 30 -55 13 -27 26 -52 29 -55 5 -5 21 -34 74
-135 17 -33 34 -62 38 -65 4 -3 11 -17 17 -30 6 -14 24 -47 40 -75 16 -27 41
-72 55 -100 14 -27 40 -75 57 -105 17 -30 54 -98 82 -150 28 -52 59 -108 68
-125 10 -16 28 -50 40 -75 13 -25 33 -61 45 -81 38 -61 144 -270 144 -283 0
-19 -75 -51 -210 -88 -103 -29 -418 -31 -525 -4 -122 31 -175 48 -175 55 0 4
20 27 45 50 37 35 48 40 64 31 50 -26 136 -3 189 51 51 52 46 104 -22 243 -30
61 -56 118 -60 126 -3 8 -10 22 -15 30 -6 8 -21 40 -34 70 -42 95 -68 152
-104 230 -19 41 -48 104 -65 140 -16 36 -43 92 -59 125 -16 33 -29 66 -29 73
0 6 -4 12 -10 12 -5 0 -10 5 -10 12 0 6 -13 39 -29 72 -49 103 -102 219 -123
266 -11 25 -24 52 -29 60 -5 8 -12 22 -15 30 -12 30 -66 146 -80 172 -8 15
-15 30 -15 33 1 16 -81 189 -91 193 -5 2 -8 9 -8 15 0 6 -14 40 -31 76 -17 36
-44 94 -60 128 -16 35 -29 67 -29 73 0 5 -4 10 -10 10 -5 0 -10 6 -10 13 0 6
-14 39 -30 72 -16 33 -30 68 -30 78 0 9 -3 17 -8 17 -4 0 -18 24 -31 53 -13
28 -40 88 -61 132 -103 217 -120 256 -120 269 0 7 -7 19 -15 26 -8 7 -15 18
-15 24 0 6 -14 38 -30 71 -16 33 -30 66 -30 73 0 6 -4 12 -8 12 -4 0 -16 25
-27 55 -10 31 -24 60 -32 66 -7 6 -13 18 -13 26 0 7 -7 24 -16 37 -18 29 -17
30 71 46 39 8 74 17 79 21 9 7 46 -25 46 -40z m2289 -1817 c4 3 114 -100 244
-227 256 -250 261 -258 210 -304 -27 -24 -243 -123 -268 -123 -7 0 -26 -7 -41
-15 -16 -8 -39 -15 -52 -15 -13 0 -32 -5 -43 -10 -10 -6 -44 -11 -75 -11 -45
-1 -60 3 -81 22 -21 21 -24 30 -20 74 8 80 34 263 40 272 2 4 8 41 11 82 4 41
11 82 16 91 4 8 9 42 11 75 2 55 28 123 37 96 2 -6 7 -9 11 -7z m-1804 -1087
c44 -19 100 -43 125 -55 25 -11 72 -32 105 -47 33 -14 83 -36 110 -48 123 -54
150 -72 153 -101 2 -16 1 -40 -3 -54 -7 -28 -118 -141 -166 -169 -16 -10 -29
-21 -29 -25 0 -4 -6 -8 -12 -8 -7 0 -27 -13 -44 -28 -18 -15 -42 -34 -54 -42
-12 -8 -28 -19 -34 -25 -25 -21 -78 -45 -100 -45 -42 0 -74 35 -80 87 -8 75
-30 197 -37 208 -4 6 -10 38 -14 73 -4 34 -10 62 -14 62 -14 0 -48 228 -37
255 6 17 5 17 131 -38z"/>
<path d="M8202 8140 c0 -14 2 -19 5 -12 2 6 2 18 0 25 -3 6 -5 1 -5 -13z"/>
<path d="M8232 8045 c0 -16 2 -22 5 -12 2 9 2 23 0 30 -3 6 -5 -1 -5 -18z"/>
<path d="M8261 7964 c0 -11 3 -14 6 -6 3 7 2 16 -1 19 -3 4 -6 -2 -5 -13z"/>
<path d="M9038 7013 c6 -2 18 -2 25 0 6 3 1 5 -13 5 -14 0 -19 -2 -12 -5z"/>
<path d="M9130 7010 c-8 -5 -12 -11 -9 -14 2 -3 11 -1 19 4 8 5 12 11 9 14 -2
3 -11 1 -19 -4z"/>
<path d="M8053 5149 c-3 -17 -11 -33 -18 -35 -10 -4 -13 -32 -6 -54 3 -9 38
67 43 94 3 14 1 26 -4 26 -5 0 -11 -14 -15 -31z"/>
<path d="M8000 5045 c-7 -9 -8 -15 -2 -15 5 0 12 7 16 15 3 8 4 15 2 15 -2 0
-9 -7 -16 -15z"/>
<path d="M7970 5007 c0 -11 -61 -91 -149 -194 -10 -12 -38 -53 -61 -90 -24
-37 -46 -70 -50 -73 -9 -7 -50 -89 -50 -101 0 -6 5 -7 10 -4 6 3 10 15 10 26
0 10 7 19 15 19 9 0 15 9 15 25 0 16 6 25 15 25 8 0 15 9 15 19 0 10 7 21 15
25 8 3 15 12 15 21 0 8 4 15 9 15 5 0 20 17 32 38 13 20 31 46 40 57 69 82 88
108 84 115 -3 4 2 10 10 14 8 3 15 12 15 21 0 8 5 14 11 13 6 -2 15 7 20 20 6
17 5 22 -6 22 -8 0 -15 -6 -15 -13z"/>
<path d="M7622 4488 c-11 -24 -17 -45 -15 -48 8 -9 43 45 43 68 0 32 -7 27
-28 -20z"/>
<path d="M1500 10470 c-44 -22 -88 -71 -165 -180 -109 -155 -127 -187 -116
-208 5 -10 76 -63 156 -118 189 -127 257 -174 380 -259 55 -38 143 -98 195
-133 52 -36 157 -108 233 -160 109 -74 142 -93 157 -86 20 10 98 112 124 162
12 23 13 33 3 44 -7 9 -73 55 -147 104 -74 49 -137 91 -140 94 -3 3 -21 16
-41 28 -73 44 -74 48 -27 141 36 71 42 92 42 145 0 80 -21 122 -103 205 -66
65 -208 168 -266 192 -131 53 -219 62 -285 29z m180 -280 c52 -27 137 -88 181
-131 23 -22 29 -36 25 -52 -3 -12 -6 -25 -6 -29 0 -28 -77 16 -282 162 -50 35
-60 62 -31 78 19 11 52 3 113 -28z"/>
<path d="M12030 10354 c-51 -10 -117 -39 -188 -84 -40 -25 -84 -52 -97 -60
-13 -8 -55 -36 -92 -61 -143 -96 -286 -189 -292 -189 -23 -2 -162 -124 -193
-170 -48 -70 -62 -119 -55 -197 10 -108 82 -209 184 -259 48 -24 62 -26 131
-21 86 5 159 34 254 98 31 22 60 39 63 39 9 0 78 53 92 70 13 17 9 26 -55 123
-25 37 -53 72 -62 77 -13 7 -36 -3 -93 -40 -41 -28 -80 -50 -86 -50 -6 0 -11
-4 -11 -8 0 -5 -29 -23 -64 -41 -53 -28 -67 -31 -85 -22 -31 17 -28 61 7 92
36 33 130 102 167 123 17 9 42 24 56 34 15 9 62 39 105 66 44 27 124 79 178
114 106 68 190 112 218 112 10 0 22 -9 28 -21 10 -18 6 -26 -30 -61 -23 -21
-80 -64 -125 -94 -89 -59 -101 -74 -84 -106 32 -60 112 -168 124 -168 8 0 31
10 52 22 51 30 215 149 231 168 45 54 76 109 89 156 12 47 12 62 -1 109 -25
95 -80 172 -159 222 -33 21 -56 27 -112 29 -38 1 -81 0 -95 -2z"/>
<path d="M984 9712 c-18 -13 -94 -180 -94 -206 0 -30 -38 -10 760 -393 69 -34
147 -71 173 -83 59 -28 83 -60 67 -89 -21 -41 -53 -32 -270 72 -167 79 -333
156 -405 187 -11 5 -85 40 -165 78 -215 104 -215 104 -233 84 -8 -10 -34 -57
-57 -106 -55 -115 -60 -106 95 -177 50 -22 132 -61 183 -85 51 -24 95 -44 98
-44 2 0 64 -29 137 -64 463 -222 446 -216 559 -223 76 -5 92 -3 133 17 56 27
104 75 133 132 72 141 71 242 -2 341 -23 32 -156 123 -226 155 -133 61 -216
99 -315 147 -60 29 -132 62 -160 74 -51 22 -59 26 -110 54 -36 20 -253 122
-276 130 -9 3 -20 2 -25 -1z"/>
<path d="M12640 9600 c-14 -4 -65 -28 -115 -52 -49 -25 -106 -52 -125 -61 -19
-9 -71 -32 -115 -52 -44 -21 -105 -49 -135 -62 -53 -25 -166 -78 -395 -187
-60 -29 -125 -59 -143 -67 -114 -48 -157 -74 -160 -99 -3 -25 30 -101 139
-327 43 -89 53 -103 74 -103 33 0 185 79 185 96 0 8 -18 52 -40 100 -23 47
-38 94 -35 103 5 16 47 40 195 110 106 49 106 49 155 -47 23 -46 47 -88 53
-94 8 -8 32 0 86 26 42 20 80 36 86 36 5 0 14 9 20 20 8 15 3 35 -25 95 -20
42 -35 86 -33 98 2 16 24 33 83 62 96 48 158 75 171 75 14 0 42 -41 84 -122
19 -37 41 -68 49 -68 7 0 51 18 97 41 94 45 99 54 65 125 -10 21 -26 57 -36
79 -62 140 -137 285 -148 284 -7 0 -23 -4 -37 -9z"/>
<path d="M5226 2208 c-8 -13 -26 -54 -40 -93 -15 -38 -30 -79 -35 -90 -20 -47
-34 -82 -41 -105 -5 -14 -18 -50 -30 -80 -11 -30 -30 -82 -42 -115 -11 -33
-24 -64 -29 -69 -5 -6 -9 -16 -9 -24 0 -14 -83 -233 -99 -262 -5 -9 -12 -30
-15 -48 -4 -17 -12 -34 -17 -37 -5 -4 -9 -13 -9 -22 0 -8 -6 -29 -14 -46 -8
-18 -19 -48 -26 -67 -7 -19 -25 -71 -40 -115 -30 -84 -28 -99 13 -110 12 -4
36 -12 52 -20 146 -64 146 -64 179 30 10 28 24 64 32 82 8 17 14 35 14 41 0 5
7 23 15 38 8 16 15 37 15 46 0 9 3 19 8 21 4 3 18 37 32 77 29 84 44 96 95 74
51 -21 152 -29 201 -15 38 10 115 74 149 122 85 121 163 376 148 487 -16 121
-76 173 -283 247 -41 15 -88 33 -105 40 -28 12 -94 35 -101 35 -2 0 -10 -10
-18 -22z m242 -339 c4 -52 -18 -132 -61 -217 -9 -19 -17 -39 -17 -45 0 -7 -13
-27 -29 -46 -23 -28 -32 -33 -55 -27 -45 11 -45 31 -2 146 27 70 49 126 62
157 8 17 14 36 14 42 0 6 9 20 20 31 15 15 25 17 42 11 18 -6 24 -17 26 -52z"/>
<path d="M8506 2140 c-132 -64 -166 -115 -166 -242 1 -86 15 -142 59 -230 47
-92 157 -180 303 -243 47 -20 89 -43 92 -51 3 -8 14 -14 24 -14 73 0 196 -216
161 -281 -19 -35 -57 -23 -89 28 -16 26 -32 56 -36 67 -3 12 -19 53 -35 92
l-31 72 -51 -20 c-29 -11 -65 -23 -82 -28 -54 -14 -82 -28 -88 -44 -6 -16 65
-207 87 -236 7 -8 18 -27 25 -42 18 -36 84 -101 118 -117 16 -7 41 -19 56 -27
41 -20 92 -17 172 11 94 33 143 70 183 135 32 53 33 58 29 140 -4 83 -18 153
-37 188 -5 9 -18 38 -29 63 -36 84 -114 157 -256 239 -66 39 -116 82 -113 97
2 8 26 24 53 35 91 37 135 60 135 68 0 13 -28 80 -70 170 -45 96 -83 142 -152
186 -31 20 -51 24 -110 24 -64 -1 -83 -6 -152 -40z m161 -227 c25 -28 30 -38
64 -126 15 -42 17 -77 2 -77 -13 0 -69 35 -85 54 -48 56 -66 128 -39 160 19
22 28 20 58 -11z"/>
<path d="M8050 1984 c-47 -12 -100 -23 -118 -23 -18 -1 -42 -6 -53 -11 -10 -6
-38 -13 -61 -16 -66 -7 -146 -34 -152 -50 -5 -14 -1 -40 25 -156 12 -53 15
-58 40 -58 16 0 31 5 34 10 3 6 24 10 45 10 46 0 51 -7 69 -95 27 -129 43
-202 57 -261 8 -33 14 -72 14 -87 0 -14 5 -29 10 -32 6 -3 10 -15 10 -27 0
-20 21 -120 45 -213 7 -27 20 -86 29 -130 9 -44 22 -100 28 -125 6 -25 13 -59
16 -77 7 -53 21 -58 111 -40 43 9 95 23 115 31 40 17 43 27 25 103 -6 27 -17
75 -24 108 -19 87 -44 194 -56 239 -6 21 -15 60 -20 85 -5 25 -16 79 -24 118
-9 40 -22 103 -30 140 -25 119 -45 205 -50 213 -3 4 -6 29 -7 54 -2 58 15 77
74 85 l43 6 -3 55 c-1 30 -10 81 -19 113 -17 56 -17 57 -52 56 -20 -1 -74 -12
-121 -25z"/>
<path d="M5934 1955 c-7 -19 -14 -42 -14 -52 0 -9 -6 -42 -14 -72 -32 -129
-39 -158 -46 -196 -8 -39 -25 -113 -56 -245 -18 -78 -41 -185 -55 -259 -5 -30
-12 -58 -14 -62 -3 -4 -10 -29 -15 -56 -6 -26 -17 -77 -25 -113 -22 -91 -45
-190 -52 -222 -5 -24 -2 -27 54 -43 85 -26 187 -44 196 -36 9 9 33 100 57 221
11 52 27 127 36 165 8 39 19 93 24 122 4 28 13 66 18 85 6 18 18 69 27 113 10
44 23 100 30 125 8 25 21 81 30 125 9 44 22 103 29 130 25 90 46 192 46 219 0
34 -23 45 -140 67 -52 11 -96 19 -98 19 -2 0 -10 -16 -18 -35z"/>
<path d="M6391 1886 c-7 -8 -16 -59 -22 -113 -5 -54 -14 -138 -20 -188 -5 -49
-14 -138 -19 -197 -6 -60 -14 -156 -20 -215 -5 -60 -14 -148 -20 -198 -17
-152 -32 -297 -37 -372 l-5 -72 33 -5 c82 -12 470 -48 474 -44 5 4 24 115 32
184 l5 41 -79 6 c-129 11 -161 20 -168 50 -3 12 -1 67 5 122 6 55 15 157 20
226 5 70 14 147 19 170 6 24 11 76 11 114 0 39 4 95 9 126 5 31 15 118 21 194
9 113 9 140 -2 150 -13 12 -141 35 -197 35 -16 0 -34 -6 -40 -14z"/>
<path d="M7215 1870 c-105 -18 -182 -86 -222 -195 -20 -55 -25 -247 -10 -400
4 -44 9 -127 12 -185 11 -221 14 -261 26 -322 6 -35 18 -77 25 -95 8 -17 14
-34 14 -38 0 -5 17 -28 37 -53 24 -30 58 -55 100 -74 54 -26 75 -30 146 -30
91 0 132 13 201 63 77 55 118 181 110 339 -2 36 -6 112 -9 170 -3 58 -10 186
-15 285 -12 221 -29 327 -64 399 -58 119 -180 166 -351 136z m102 -235 c14
-10 24 -33 32 -77 14 -78 31 -359 38 -618 5 -189 4 -196 -16 -214 -17 -15 -26
-17 -44 -9 -33 15 -55 135 -62 345 -3 92 -10 193 -15 225 -6 32 -10 118 -10
191 0 119 2 134 20 152 24 24 29 24 57 5z"/>
</g>
</svg>
